<?xml version="1.0" standalone="no"?><!DOCTYPE svg PUBLIC "-//W3C//DTD SVG 1.1//EN" "http://www.w3.org/Graphics/SVG/1.1/DTD/svg11.dtd"><svg t="1734671755961" class="icon" viewBox="0 0 1025 1024" version="1.1" xmlns="http://www.w3.org/2000/svg" p-id="2289" xmlns:xlink="http://www.w3.org/1999/xlink" width="200.1953125" height="200"><path d="M655.06955 198.271492c-4.497505 0-8.740011 1.748752-11.908765 4.927506l-292.514107 292.500357c-3.311254 3.320004-5.045006 7.81251-4.838756 12.626265l0.01375 0.517501-0.01375 0.517501c-0.19125 4.810006 1.522502 9.287511 4.833756 12.597515l298.832865 298.837865c6.362508 6.367508 17.466271 6.367508 23.813779 0 6.582508-6.572508 6.582508-17.266271 0.01-23.832529l-288.125352-288.120352L666.988314 227.006527c3.178754-3.178754 4.926256-7.406259 4.926256-11.903765 0-4.502505-1.747502-8.735011-4.926256-11.913765C663.80956 200.020244 659.575805 198.271492 655.06955 198.271492L655.06955 198.271492z" fill="#aeffac" p-id="2290"></path><path d="M512.016875 0C229.23403 0 0 229.23403 0 512.016875 0 794.77597 229.23903 1024 512.016875 1024c282.774095 0 511.998125-229.22403 511.998125-511.983125C1024.015 229.23403 794.79097 0 512.016875 0zM691.548344 839.053524c-8.05126 8.06126-18.770023 12.500015-30.166287 12.500015s-22.113777-4.447505-30.176287-12.500015L332.392906 540.220659c-8.23251-8.21626-12.738766-19.627524-12.407515-31.377538-0.33125-11.742514 4.165005-23.158778 12.397515-31.391288l292.520357-292.520357c8.06126-8.05126 18.770023-12.475015 30.166287-12.475015s22.105027 4.428755 30.166287 12.475015c8.05626 8.05751 12.490015 18.765023 12.490015 30.171287 0 11.396264-4.443755 22.110027-12.490015 30.166287L421.675515 508.843121l269.872829 269.869079C708.189614 795.342221 708.189614 822.419754 691.548344 839.053524z" fill="#aeffac" p-id="2291"></path><path d="M512.016875 999.03622" fill="#aeffac" p-id="2292"></path></svg>