<?xml version="1.0" standalone="no"?><!DOCTYPE svg PUBLIC "-//W3C//DTD SVG 1.1//EN" "http://www.w3.org/Graphics/SVG/1.1/DTD/svg11.dtd"><svg t="1734670204079" class="icon" viewBox="0 0 1025 1024" version="1.1" xmlns="http://www.w3.org/2000/svg" p-id="2919" xmlns:xlink="http://www.w3.org/1999/xlink" width="200.1953125" height="200"><path d="M368.94045 825.733508c4.497505 0 8.741261-1.747502 11.910015-4.925006l292.509107-292.505357c3.315004-3.321254 5.048756-7.81251 4.838756-12.628765l-0.015-0.517501 0.015-0.517501c0.195-4.810006-1.518752-9.282511-4.828756-12.597515L374.536707 203.203998c-6.362508-6.361258-17.466271-6.361258-23.813779 0-6.582508 6.572508-6.582508 17.266271-0.01 23.833779l288.121602 288.120352L357.021686 796.993473c-3.183754 3.178754-4.931256 7.408759-4.931256 11.903765 0 4.502505 1.747502 8.735011 4.931256 11.913765C360.20044 823.986006 364.434195 825.733508 368.94045 825.733508L368.94045 825.733508z" fill="#c8f4ff" p-id="2920"></path><path d="M511.993125 0C229.21903 0 0 229.22403 0 511.988125c0 282.779095 229.21903 512.011875 511.993125 512.011875 282.784095 0 512.021875-229.23403 512.021875-512.011875C1024.015 229.22403 794.78097 0 511.993125 0zM691.622094 546.548167 399.106737 839.068524c-8.06126 8.05126-18.773773 12.480015-30.166287 12.480015-11.396264 0-22.108777-4.433755-30.170037-12.480015-8.05251-8.05501-12.486265-18.765023-12.486265-30.171287 0-11.391264 4.438755-22.108777 12.486265-30.166287l263.564072-263.574072L332.456656 245.287799c-16.63627-16.63002-16.63627-43.705053 0-60.341324 8.05626-8.06126 18.773773-12.500015 30.171287-12.500015 11.391264 0 22.108777 4.448755 30.170037 12.500015l298.819115 298.832865c8.23251 8.21876 12.738766 19.630024 12.407515 31.377538C704.35586 526.901893 699.854604 538.315657 691.622094 546.548167z" fill="#c8f4ff" p-id="2921"></path><path d="M511.993125 24.96628" fill="#c8f4ff" p-id="2922"></path></svg>